<svg id="er9f0yGlP8s1" xmlns="http://www.w3.org/2000/svg" xmlns:xlink="http://www.w3.org/1999/xlink" viewBox="0 0 300 300" shape-rendering="geometricPrecision" text-rendering="geometricPrecision" project-id="64fbd62820154ea8a688e2d3c9a9acae" export-id="7bfb726aa2f14e49b1a4889a279d711a" cached="false" style="background-color:transparent"><rect width="300.000001" height="300.000001" rx="0" ry="0" transform="translate(.000002 0.000001)" fill="#d2edeb" stroke-width="0"/><g><line x1="-21.238102" y1="-49.247466" x2="278.761898" y2="-49.247466" transform="matrix(0 1-1 0 0.752534 21.238103)" fill="none" stroke="#00c39d" stroke-width="10" stroke-linecap="square"/><line x1="-21.238102" y1="-49.247466" x2="278.761898" y2="-49.247466" transform="matrix(0 1-1 0-49.247466 21.238103)" fill="none" stroke="#00c39d" stroke-width="10" stroke-linecap="square"/><line x1="-21.238102" y1="-49.247466" x2="278.761898" y2="-49.247466" transform="matrix(0 1-1 0 250.752534 21.238103)" fill="none" stroke="#00c39d" stroke-width="10" stroke-linecap="square"/><line x1="-21.238102" y1="-49.247466" x2="278.761898" y2="-49.247466" transform="matrix(0 1-1 0 50.752534 21.238103)" fill="none" stroke="#00c39d" stroke-width="10" stroke-linecap="square"/><line x1="-21.238102" y1="-49.247466" x2="278.761898" y2="-49.247466" transform="matrix(0 1-1 0 100.752534 21.238103)" fill="none" stroke="#00c39d" stroke-width="10" stroke-linecap="square"/><line x1="-21.238102" y1="-49.247466" x2="278.761898" y2="-49.247466" transform="matrix(0 1-1 0 150.752534 21.238103)" fill="none" stroke="#00c39d" stroke-width="10" stroke-linecap="square"/><line x1="-21.238102" y1="-49.247466" x2="278.761898" y2="-49.247466" transform="matrix(0 1-1 0 200.752534 21.238103)" fill="none" stroke="#00c39d" stroke-width="10" stroke-linecap="square"/></g></svg>
