<svg id="e3afiPB70vG1" xmlns="http://www.w3.org/2000/svg" xmlns:xlink="http://www.w3.org/1999/xlink" viewBox="0 0 300 300" shape-rendering="geometricPrecision" text-rendering="geometricPrecision" project-id="64fbd62820154ea8a688e2d3c9a9acae" export-id="ba0cd3fe14064514b98828fb8b2f6ff2" cached="false" style="background-color:transparent"><rect width="300.000001" height="300.000001" rx="0" ry="0" transform="translate(.000002 0.000001)" fill="#d2edeb" stroke-width="0"/><line x1="-151.585731" y1="-49.349601" x2="293.981936" y2="-48.169563" transform="matrix(.707107-.707107 0.707107 0.707107 137.70879 231.937645)" fill="none" stroke="#00c39d" stroke-width="10" stroke-linecap="round"/><line x1="-145.502172" y1="-49.247466" x2="278.761897" y2="-49.247466" transform="matrix(.707107-.707107 0.707107 0.707107 237.70879 251.937645)" fill="none" stroke="#00c39d" stroke-width="10" stroke-linecap="round"/><line x1="-145.502172" y1="-49.247466" x2="278.761897" y2="-49.247466" transform="matrix(.707107-.707107 0.707107 0.707107 187.70879 241.937645)" fill="none" stroke="#00c39d" stroke-width="10" stroke-linecap="round"/><line x1="-145.502172" y1="-49.247466" x2="278.761897" y2="-49.247466" transform="matrix(.707107-.707107 0.707107 0.707107 337.70879 271.937645)" fill="none" stroke="#00c39d" stroke-width="10" stroke-linecap="round"/><line x1="-145.502172" y1="-49.247466" x2="278.761897" y2="-49.247466" transform="matrix(.707107-.707107 0.707107 0.707107 287.70879 261.937645)" fill="none" stroke="#00c39d" stroke-width="10" stroke-linecap="round"/><line x1="-145.502172" y1="-49.247466" x2="278.761897" y2="-49.247466" transform="matrix(.707107-.707107 0.707107 0.707107 37.70879 211.937645)" fill="none" stroke="#00c39d" stroke-width="10" stroke-linecap="round"/><line x1="-145.502172" y1="-49.247466" x2="278.761897" y2="-49.247466" transform="matrix(.707107-.707107 0.707107 0.707107 87.70879 221.937645)" fill="none" stroke="#00c39d" stroke-width="10" stroke-linecap="round"/><line x1="-145.502172" y1="-49.247466" x2="278.761897" y2="-49.247466" transform="matrix(.707107-.707107 0.707107 0.707107-62.29121 191.937645)" fill="none" stroke="#00c39d" stroke-width="10" stroke-linecap="round"/><line x1="-145.502172" y1="-49.247466" x2="278.761897" y2="-49.247466" transform="matrix(.707107-.707107 0.707107 0.707107-12.29121 201.937645)" fill="none" stroke="#00c39d" stroke-width="10" stroke-linecap="round"/></svg>
